# xmcd
#
# Track frame offsets:
#	150
#	19607
#	38895
#	51220
#	62187
#	74117
#	87070
#	106602
#	116060
#	129550
#
# Disc length: 2008 seconds
#
# Revision: 0
# Processed by: cddbd v1.5.1PL0 Copyright (c) Steve Scherf et al.
# Submitted via: dBpowerAMP V4.0
#
DISCID=8707d60a
DTITLE=Various Artist - American Milestones Series
DYEAR=1999
DGENRE=Country
TTITLE0=Georgia on My Mind - Willie Nelson
TTITLE1=I Can See Clearly Now - Willie Nelson
TTITLE2=Folsom Prison - Johnny Cash
TTITLE3=Joe Bean - Johnny Cash
TTITLE4=Stand By Your Man - Tammy Wynette
TTITLE5=I'm Only a Woman - Tammy Wynette
TTITLE6=El Paso - Marty Robbins
TTITLE7=Saddle Tramp - Marty Robbins
TTITLE8=Big City - Merle Haggard
TTITLE9=I Won't Give Up My Train - Merle Haggard
EXTD=Sony Nashville Legacy Recordings
EXTT0=
EXTT1=
EXTT2=
EXTT3=
EXTT4=
EXTT5=
EXTT6=
EXTT7=
EXTT8=
EXTT9=
PLAYORDER=
